<?xml version="1.0" standalone="no"?>
<!DOCTYPE svg PUBLIC "-//W3C//DTD SVG 20010904//EN"
 "http://www.w3.org/TR/2001/REC-SVG-20010904/DTD/svg10.dtd">
<svg version="1.0" xmlns="http://www.w3.org/2000/svg"
 width="1024.000000pt" height="1024.000000pt" viewBox="0 0 1024.000000 1024.000000"
 preserveAspectRatio="xMidYMid meet">

<g transform="translate(0.000000,1024.000000) scale(0.100000,-0.100000)"
fill="#000000" stroke="none">
<path d="M0 5120 l0 -5120 5120 0 5120 0 0 5120 0 5120 -5120 0 -5120 0 0
-5120z m5253 2197 c105 -48 177 -149 185 -258 l4 -56 -38 -6 c-22 -4 -67 -7
-101 -7 l-63 0 0 33 c0 46 -38 115 -83 151 -29 23 -50 31 -95 34 -103 7 -175
-50 -203 -160 -10 -41 -15 -48 -35 -48 -22 0 -24 4 -24 44 0 87 55 189 130
241 100 69 216 81 323 32z m-713 -480 c69 -15 169 -33 224 -41 54 -8 100 -16
101 -18 2 -2 6 -160 10 -353 3 -192 11 -404 16 -469 21 -269 94 -491 227 -689
55 -82 190 -228 266 -287 39 -29 66 -61 88 -102 54 -102 117 -141 278 -173
l105 -21 5 -53 6 -53 -41 7 c-445 73 -912 62 -1338 -29 l-108 -24 3 56 3 55
97 23 c155 37 228 85 284 186 l29 53 0 800 0 800 -27 51 c-50 94 -133 148
-273 178 -44 10 -87 19 -97 22 -12 4 -17 19 -20 60 -3 51 -1 55 17 51 11 -3
76 -16 145 -30z m1320 -66 c0 -39 -4 -51 -17 -55 -37 -11 -254 -36 -415 -48
l-168 -12 0 -111 c0 -75 5 -126 16 -158 19 -56 81 -128 129 -151 l35 -17 0
-154 c0 -85 -4 -155 -8 -155 -19 0 -93 62 -131 110 -48 61 -84 134 -105 216
-12 48 -16 114 -16 292 l0 229 133 7 c143 8 375 31 447 45 25 5 57 9 73 10 26
1 27 -1 27 -48z m-790 -351 c5 -343 5 -346 32 -418 52 -145 140 -253 268 -330
l65 -39 3 -197 2 -197 -57 44 c-209 161 -336 374 -377 632 -10 61 -16 214 -20
473 l-6 383 43 -3 42 -3 5 -345z m-3773 -2451 l158 -140 3 112 c3 127 1 136
-30 149 -16 6 16 9 102 9 107 1 121 -1 100 -12 l-25 -13 0 -227 c0 -125 -1
-227 -3 -227 -2 0 -74 63 -160 139 l-157 140 -3 -122 c-2 -106 0 -123 15 -134
14 -11 -2 -13 -92 -13 -104 0 -108 1 -86 16 l23 16 -4 224 c-2 123 -2 224 -1
224 1 0 73 -63 160 -141z m2071 121 c31 -11 33 -16 28 -43 -3 -16 -6 -46 -6
-66 l-1 -36 -23 45 c-28 56 -74 84 -135 84 -107 -1 -155 -67 -155 -214 0 -111
29 -177 86 -199 43 -15 80 -9 108 19 16 16 20 34 20 89 0 46 -4 71 -12 74 -7
3 30 6 82 6 73 1 91 -2 82 -11 -7 -7 -12 -39 -12 -73 0 -71 -8 -82 -85 -116
-68 -31 -194 -38 -263 -15 -60 20 -125 81 -144 134 -7 20 -12 66 -12 102 0
114 50 185 161 226 45 17 229 13 281 -6z m668 5 c64 -19 127 -73 149 -127 24
-59 23 -153 -2 -209 -43 -98 -138 -144 -282 -137 -145 7 -228 69 -253 190 -26
125 36 238 152 278 67 23 168 25 236 5z m1281 -126 l158 -140 3 112 c3 127 1
136 -30 149 -16 6 16 9 102 9 107 1 121 -1 100 -12 l-25 -13 0 -227 c0 -125
-2 -227 -4 -227 -3 0 -214 186 -293 259 l-28 25 0 -127 c0 -123 1 -128 23
-137 15 -6 -14 -9 -93 -9 -108 -1 -113 0 -92 15 23 16 23 16 20 240 -2 123 -2
224 -1 224 1 0 73 -63 160 -141z m933 128 c53 -12 55 -13 58 -46 2 -19 1 -50
-3 -70 l-7 -35 -18 41 c-20 46 -49 69 -102 84 -77 20 -152 -24 -178 -105 -18
-57 -9 -212 15 -253 36 -61 127 -80 168 -35 22 24 27 149 7 162 -10 7 16 10
78 10 89 0 92 -1 82 -19 -5 -11 -10 -44 -10 -74 0 -62 -10 -75 -85 -108 -70
-31 -199 -38 -261 -14 -102 39 -153 115 -154 228 0 123 57 203 170 238 37 11
177 9 240 -4z m670 -54 l0 -68 -18 35 c-22 44 -53 60 -119 60 l-53 0 0 -95 0
-95 44 0 c60 0 76 8 92 44 12 29 13 24 13 -64 0 -88 -1 -93 -13 -64 -16 36
-32 44 -92 44 l-44 0 0 -91 0 -92 63 5 c76 6 111 27 138 80 11 21 21 38 23 38
3 0 -9 -80 -19 -127 -5 -23 -6 -23 -195 -23 l-190 0 20 20 c19 19 20 33 20
211 0 193 -6 227 -38 231 -9 1 60 5 153 8 94 3 180 7 193 8 21 2 22 -2 22 -65z
m408 -73 l157 -140 3 107 c3 129 -1 150 -31 156 -12 2 34 5 103 5 107 2 121 0
100 -11 l-25 -13 0 -227 c0 -125 -1 -227 -3 -227 -1 0 -73 63 -160 140 l-157
140 -3 -107 c-3 -124 1 -150 26 -156 9 -3 -35 -5 -98 -5 -63 0 -107 2 -98 5
27 7 29 31 26 261 -2 117 -2 212 0 212 1 0 73 -63 160 -140z m1833 -15 l112
-155 105 157 c58 87 107 152 110 145 2 -7 18 -111 36 -230 30 -206 32 -217 56
-229 22 -11 10 -13 -84 -13 -86 0 -106 3 -98 13 7 9 7 40 -2 105 -7 51 -15 95
-18 97 -8 8 -128 -178 -137 -211 -7 -27 -11 -23 -96 97 l-90 124 -12 -99 c-9
-72 -9 -103 -2 -113 9 -11 -1 -13 -52 -12 -47 0 -58 3 -43 9 12 5 24 12 27 17
3 5 17 96 32 203 27 203 34 250 40 250 2 0 54 -70 116 -155z m-8261 138 c-36
-13 -40 -33 -40 -230 0 -180 1 -194 20 -213 l20 -20 -112 1 c-78 0 -106 3 -90
9 22 9 22 11 22 225 0 214 0 216 -22 225 -16 6 16 9 97 9 66 -1 113 -3 105 -6z
m1274 -7 c107 -32 160 -106 160 -221 0 -102 -37 -165 -124 -211 -30 -16 -61
-19 -215 -21 -99 -1 -172 1 -163 3 27 8 29 31 26 244 l-3 194 -25 13 c-38 19
279 18 344 -1z m556 7 c-36 -13 -40 -33 -40 -230 0 -180 1 -194 20 -213 l20
-20 -112 1 c-79 0 -106 3 -90 9 l22 10 -2 217 -3 217 -25 7 c-14 4 31 7 100 7
69 0 118 -2 110 -5z m2190 0 c-36 -13 -40 -33 -40 -230 0 -180 1 -194 20 -213
l20 -20 -112 1 c-78 0 -106 3 -90 9 22 9 22 11 22 225 0 214 0 216 -22 225
-16 6 16 9 97 9 66 -1 113 -3 105 -6z m3150 0 c-37 -13 -40 -33 -40 -234 0
-193 1 -198 22 -213 21 -15 14 -16 -92 -15 -79 0 -108 3 -92 9 22 9 22 11 22
217 0 114 -4 213 -8 219 -4 7 -16 14 -27 17 -11 2 36 5 105 5 69 0 118 -2 110
-5z m402 -4 l-23 -9 3 -180 3 -180 32 -32 c28 -27 39 -32 83 -32 44 0 55 5 83
32 l32 32 3 180 3 180 -23 9 c-17 7 -2 10 57 9 44 0 71 -3 60 -5 -11 -3 -23
-10 -27 -17 -4 -6 -8 -83 -8 -171 0 -147 -2 -163 -23 -199 -33 -58 -92 -86
-181 -86 -96 0 -141 14 -190 60 l-41 39 -3 158 c-3 185 -5 201 -35 213 -15 6
18 9 98 9 84 0 113 -3 97 -10z"/>
<path d="M3895 4073 c-31 -8 -73 -53 -87 -92 -7 -20 -12 -72 -12 -116 0 -95
14 -142 55 -181 24 -23 39 -29 74 -29 51 0 79 21 106 80 26 57 26 204 0 262
-27 58 -82 89 -136 76z"/>
<path d="M2000 3865 l0 -208 50 5 c92 9 134 73 134 203 0 129 -40 191 -132
202 l-52 6 0 -208z"/>
</g>
</svg>
